#!OML:ASF G:\JayActor3\Patient Classification 1\Patient 1\Session 2\male.ASF
:FULLY-SPECIFIED
:DEGREES
883
root 10.7408 16.2334 -5.73707 -710.109 70.4184 12.0266
lowerback 7.09798 -1.19201 -6.48854
upperback 2.18084 -2.0133 -2.19781
thorax -1.57141 -0.970873 1.53017
lowerneck -11.2037 3.94654 0.0530793
upperneck 3.20367 4.92123 6.6552
head 2.84315 2.74027 2.47346
rclavicle -5.01931e-015 -8.34896e-015
rhumerus -51.4722 27.0329 -89.5532
rradius 49.8334
rwrist -12.7099
rhand -12.2682 9.33377
rfingers 7.12502
rthumb 13.7986 -20.1886
lclavicle -5.01931e-015 -8.34896e-015
lhumerus -24.9964 -37.1973 83.0206
lradius 96.9731
lwrist 29.2404
lhand -18.2624 17.7654
lfingers 7.12502
lthumb 8.01704 47.5934
rfemur -35.0564 2.89867 14.2097
rtibia 41.0984
rfoot -19.4718 -7.09823
rtoes 8.92663
lfemur 12.9739 9.53585 -19.8045
ltibia 36.9316
lfoot -2.49705 11.5746
ltoes -23.4665
884
root 10.9939 16.2364 -5.6298 -712.29 70.3808 10.0272
lowerback 7.25813 -0.97652 -5.82541
upperback 2.25156 -1.69081 -2.19463
thorax -1.63206 -0.810289 1.14247
lowerneck -11.3045 3.68607 -0.226407
upperneck 3.16282 4.5995 6.93437
head 2.8511 2.58966 2.60348
rclavicle -5.36719e-015 -1.19271e-014
rhumerus -50.4932 26.7905 -90.3671
rradius 49.6779
rwrist -12.2187
rhand -12.4727 9.46158
rfingers 7.12502
rthumb 13.6015 -20.0741
lclavicle -5.36719e-015 -1.19271e-014
lhumerus -27.3103 -36.7113 84.7972
lradius 95.7958
lwrist 29.1425
lhand -18.6225 18.2636
lfingers 7.12502
lthumb 7.66953 48.1045
rfemur -34.2511 2.55914 15.2018
rtibia 41.8485
rfoot -18.9999 -7.33385
rtoes 9.64487
lfemur 11.3308 10.2224 -18.5632
ltibia 41.1566
lfoot 0.203542 11.8601
ltoes -20.7518
885
root 11.2454 16.2398 -5.52311 -714.612 70.2968 7.89146
lowerback 7.4554 -0.749603 -5.13134
upperback 2.32827 -1.35077 -2.18077
thorax -1.70104 -0.640764 0.745158
lowerneck -11.4247 3.41503 -0.492501
upperneck 3.13583 4.26051 7.22984
head 2.87061 2.43221 2.73774
rclavicle 8.94531e-016 -4.77083e-015
rhumerus -49.3663 26.6692 -91.2464
rradius 49.5591
rwrist -11.7825
rhand -12.6767 9.53121
rfingers 7.12502
rthumb 13.4049 -20.0175
lclavicle 8.94531e-016 -4.77083e-015
lhumerus -29.6429 -36.0609 86.5015
lradius 94.3444
lwrist 28.946
lhand -19.2331 18.7898
lfingers 7.12502
lthumb 7.08014 48.6514
rfemur -33.4115 2.22308 16.245
rtibia 42.5456
rfoot -18.5687 -7.64974
rtoes 10.1264
lfemur 9.5443 10.8302 -17.3038
ltibia 45.3933
lfoot 2.88461 11.9422
ltoes -17.8966
886
root 11.4955 16.2424 -5.41654 -717.069 70.1761 5.62536
lowerback 7.68244 -0.51244 -4.41391
upperback 2.41142 -0.993683 -2.14888
thorax -1.77242 -0.462725 0.349308
lowerneck -11.564 3.12992 -0.7511
upperneck 3.12655 3.90015 7.54002
head 2.90326 2.26583 2.87661
rclavicle -6.19214e-014 3.18055e-015
rhumerus -48.1113 26.6676 -92.1649
rradius 49.4953
rwrist -11.4091
rhand -12.8735 9.55505
rfingers 7.12502
rthumb 13.2151 -20.0061
lclavicle -6.19214e-014 3.18055e-015
lhumerus -31.9256 -35.2638 88.0896
lradius 92.5959
lwrist 28.6822
lhand -20.085 19.3359
lfingers 7.12502
lthumb 6.25774 49.2235
rfemur -32.5023 1.88551 17.344
rtibia 43.1775
rfoot -18.2383 -8.04546
rtoes 10.3402
lfemur 7.62863 11.351 -16.0289
ltibia 49.568
lfoot 5.24691 11.6786
ltoes -15.283
887
root 11.7447 16.2437 -5.30981 -719.657 70.0269 3.22072
lowerback 7.91898 -0.264608 -3.67133
upperback 2.50105 -0.616841 -2.09181
thorax -1.83414 -0.275027 -0.0395297
lowerneck -11.7197 2.82569 -1.0119
upperneck 3.12785 3.51362 7.86109
head 2.9466 2.0877 3.01992
rclavicle 4.11484e-014 -7.95139e-015
rhumerus -46.7481 26.7815 -93.0933
rradius 49.507
rwrist -11.0993
rhand -13.066 9.55378
rfingers 7.12502
rthumb 13.0296 -20.0193
lclavicle 4.11484e-014 -7.95139e-015
lhumerus -34.0873 -34.3419 89.5242
lradius 90.5253
lwrist 28.3586
lhand -21.1406 19.8956
lfingers 7.12502
lthumb 5.23858 49.8109
rfemur -31.5052 1.54956 18.5009
rtibia 43.7279
rfoot -18.0703 -8.48868
rtoes 10.3482
lfemur 5.58629 11.7925 -14.7366
ltibia 53.6026
lfoot 7.03276 11.0118
ltoes -13.217
888
root 11.9906 16.2444 -5.20257 -722.324 69.9112 0.673502
lowerback 8.13664 -0.0230757 -2.91106
upperback 2.58019 -0.242595 -2.00154
thorax -1.88687 -0.0887573 -0.406917
lowerneck -11.8887 2.49736 -1.28612
upperneck 3.12607 3.09697 8.18978
head 2.99586 1.89529 3.16781
rclavicle 9.14409e-015 3.26007e-014
rhumerus -45.2945 27.011 -94.0024
rradius 49.6149
rwrist -10.8513
rhand -13.2606 9.54593
rfingers 7.12502
rthumb 12.842 -20.039
lclavicle 9.14409e-015 3.26007e-014
lhumerus -36.0658 -33.3179 90.7758
lradius 88.1148
lwrist 27.9536
lhand -22.3371 20.4642
lfingers 7.12502
lthumb 4.08325 50.4048
rfemur -30.4655 1.19667 19.7071
rtibia 44.1807
rfoot -18.1149 -8.95475
rtoes 10.27
lfemur 3.336 12.1289 -13.4373
ltibia 57.4343
lfoot 8.10645 9.98001
ltoes -11.8512
